:SAMPLES-PER-SECOND 30
:FRAME-RANGE 1-668
:FULLY-SPECIFIED
:DEGREES
314
root  42.4908 39.8602 6.29075 -178.586 -36.3843 -178.537
RightUpLeg  -9.87408 4.58376 -1.50627
RightLeg  11.464 -1.28626 -2.04565
RightFoot  -4.68056 -0.401057 6.33665
RightToes  -1.33073e-015 0 -3.6325e-017
Spine  6.6993 -1.63085 2.24822
Spine1  0.881526 3.01022 -22.757
HEad  10.6832 -39.6813 12.666
LeftShoulder1  0.499478 2.20478 -32.3582
LeftArm  -32.547 18.1251 -8.66841
LeftForeArm  14.6497 -73.0783 -41.0168
LeftHand  0.128116 10.0627 4.53266
RightShoulder  0.713257 6.99791 -1.88604
RightArm  29.572 -2.61294 6.84911
RightForeArm  -2.8282 39.3386 9.35538
RightHand  1.14975 3.27175 15.0784
LeftUpLeg  -6.01773 12.1703 8.0123
LeftLeg  12.1097 3.42329 -0.6565
LeftFoot  -6.50447 0.350179 -7.36251
LeftToes  -2.73175e-012 1.00346e-010 -4.28452e-011
315
root  42.5787 39.8987 6.25262 -178.862 -35.5418 -177.83
RightUpLeg  -9.48872 4.22114 -0.530261
RightLeg  10.0684 -0.115967 -2.09889
RightFoot  -3.87135 -0.421665 6.0486
RightToes  -1.33073e-015 0 -3.6325e-017
Spine  5.75225 -1.06536 3.59763
Spine1  2.5236 4.4151 -24.7746
HEad  8.82451 -39.2487 15.0464
LeftShoulder1  0.518154 2.20068 -33.6611
LeftArm  -34.2977 13.1612 -9.11602
LeftForeArm  10.8643 -71.6817 -37.1239
LeftHand  0.136062 9.87267 4.68778
RightShoulder  0.949154 9.0087 -0.977335
RightArm  33.2342 -4.67161 8.89253
RightForeArm  -4.3273 37.0331 8.71659
RightHand  0.794227 2.12099 12.0679
LeftUpLeg  -5.89443 12.4321 8.81048
LeftLeg  11.8791 3.9707 -0.577194
LeftFoot  -6.35321 0.37018 -7.61803
LeftToes  -2.73175e-012 1.00346e-010 -4.28452e-011
316
root  42.6669 39.9234 6.237 -178.992 -35.576 -177.472
RightUpLeg  -9.20676 3.19717 -0.0652161
RightLeg  9.15858 0.733177 -1.94541
RightFoot  -3.37457 -0.430882 5.85134
RightToes  -1.33073e-015 0 -3.6325e-017
Spine  5.54735 -0.616984 3.97823
Spine1  3.3645 5.17914 -25.1766
HEad  7.14693 -38.9707 16.7704
LeftShoulder1  0.557046 2.12083 -34.1722
LeftArm  -35.2345 9.2152 -10.9611
LeftForeArm  7.96385 -70.0859 -33.4151
LeftHand  0.145193 9.85644 4.92802
RightShoulder  1.26634 10.2088 0.904566
RightArm  34.1202 -5.61838 10.2496
RightForeArm  -6.35074 33.2467 7.73366
RightHand  0.488972 1.15076 8.57865
LeftUpLeg  -5.99249 12.3224 9.14103
LeftLeg  11.6794 4.05957 -0.426182
LeftFoot  -6.09198 0.3886 -7.67384
LeftToes  -2.73175e-012 1.00346e-010 -4.28452e-011
317
root  42.7512 39.9519 6.24345 -178.981 -36.6714 -177.151
RightUpLeg  -9.00442 1.51706 0.104452
RightLeg  8.30557 1.2967 -1.50914
RightFoot  -2.93341 -0.431238 5.58932
RightToes  -1.33073e-015 0 -3.6325e-017
Spine  5.77811 -0.520336 3.84219
Spine1  3.56794 5.15074 -24.3574
HEad  5.91528 -38.7634 17.6785
LeftShoulder1  0.701001 1.76308 -34.1711
LeftArm  -35.7437 7.032 -13.457
LeftForeArm  6.84336 -69.1058 -31.4254
LeftHand  0.154498 9.75576 5.26017
RightShoulder  1.61263 10.2997 3.68847
RightArm  32.359 -5.04013 11.4692
RightForeArm  -8.04608 28.3813 6.55965
RightHand  0.223952 0.886172 4.06758
LeftUpLeg  -6.48635 12 9.28259
LeftLeg  11.4015 3.29963 -0.40778
LeftFoot  -5.72892 0.412798 -7.71411
LeftToes  -2.73175e-012 1.00346e-010 -4.28452e-011
318
root  42.8259 39.9793 6.26985 -178.913 -38.3045 -176.949
RightUpLeg  -8.79622 -0.0641725 0.00712645
RightLeg  7.55624 1.16317 -1.00129
RightFoot  -2.58398 -0.428602 5.36242
RightToes  -1.33073e-015 0 -3.6325e-017
Spine  5.79579 -0.373695 3.1732
Spine1  4.3067 4.90596 -22.0627
HEad  4.41169 -38.0396 17.8527
LeftShoulder1  0.857447 1.34386 -33.6131
LeftArm  -35.3354 5.52188 -16.7593
LeftForeArm  5.42515 -67.7355 -29.0106
LeftHand  0.145533 9.63911 5.15159
RightShoulder  1.97014 9.98256 6.99656
RightArm  26.4066 -3.99035 11.5026
RightForeArm  -7.43434 23.0962 5.45217
RightHand  0.0353675 1.27562 0.496601
LeftUpLeg  -7.14284 11.6163 9.22785
LeftLeg  11.1345 2.22381 -0.451394
LeftFoot  -5.26883 0.431424 -7.53176
LeftToes  -2.73175e-012 1.00346e-010 -4.28452e-011
319
root  42.8827 39.9952 6.30618 -178.868 -40.3013 -176.865
RightUpLeg  -8.60248 -1.19094 -0.249651
RightLeg  7.16763 0.262378 -0.625862
RightFoot  -2.44656 -0.42078 5.19099
RightToes  -1.33073e-015 0 -3.6325e-017
Spine  6.10267 -0.371393 2.51796
Spine1  4.74128 4.33694 -19.3799
HEad  3.43751 -36.2615 17.3372
LeftShoulder1  0.955597 0.943234 -31.2481
LeftArm  -34.1823 6.02145 -21.9165
LeftForeArm  4.93419 -66.951 -27.7509
LeftHand  0.147449 10.0067 4.84498
RightShoulder  2.3916 9.74351 10.8567
RightArm  6.75176 -2.59808 10.1829
RightForeArm  5.31684 16.8678 8.26567
RightHand  -0.197444 1.92465 -3.30667
LeftUpLeg  -7.8397 11.04 8.99613
LeftLeg  10.9769 0.933596 -0.474645
LeftFoot  -4.86117 0.447242 -7.37962
LeftToes  -2.73175e-012 1.00346e-010 -4.28452e-011
320
root  42.9007 40.0056 6.35081 -178.903 -42.3818 -176.951
RightUpLeg  -8.30082 -2.03076 -0.631089
RightLeg  7.09232 -0.950412 -0.47791
RightFoot  -2.48268 -0.410944 5.08233
RightToes  -1.33073e-015 0 -3.6325e-017
Spine  6.2731 -0.335726 1.47879
Spine1  5.40627 3.53021 -15.6194
HEad  2.90628 -33.0238 15.6178
LeftShoulder1  1.08713 0.309001 -27.9129
LeftArm  -32.9178 8.42257 -27.9877
LeftForeArm  4.09498 -66.6245 -27.3408
LeftHand  0.146478 10.4816 4.43784
RightShoulder  2.9308 9.83059 15.1977
RightArm  -13.654 -0.945306 7.65188
RightForeArm  15.6449 12.2087 9.17783
RightHand  -0.376296 2.11622 -6.00532
LeftUpLeg  -8.29761 10.0614 8.5746
LeftLeg  10.8117 -0.136869 -0.41609
LeftFoot  -4.53955 0.461703 -7.30561
LeftToes  -2.73175e-012 1.00346e-010 -4.28452e-011
321
root  42.8726 40.0077 6.39524 -178.908 -44.3521 -177.2
RightUpLeg  -7.96893 -2.71318 -1.12812
RightLeg  7.26 -2.17361 -0.468852
RightFoot  -2.69847 -0.399802 5.04301
RightToes  -1.33073e-015 0 -3.6325e-017
Spine  6.25104 -0.201498 -0.22951
Spine1  6.07179 2.40667 -10.4896
HEad  3.19357 -27.3331 11.9149
LeftShoulder1  1.18824 -0.426801 -23.9785
LeftArm  -30.933 12.4201 -34.0573
LeftForeArm  2.42028 -66.0373 -26.6576
LeftHand  0.122417 11.3787 3.4287
RightShoulder  3.38926 9.90258 18.7945
RightArm  -25.7375 1.40115 5.24972
RightForeArm  17.7861 10.5001 8.34488
RightHand  -0.434379 1.75442 -7.22404
LeftUpLeg  -8.55776 9.03509 8.03714
LeftLeg  10.6419 -0.960644 -0.369503
LeftFoot  -4.28205 0.46301 -7.08509
LeftToes  -2.73175e-012 1.00346e-010 -4.28452e-011
322
root  42.8139 40.0092 6.46116 -178.813 -46.1851 -177.494
RightUpLeg  -7.70502 -3.44374 -1.72792
RightLeg  7.47118 -3.19941 -0.403318
RightFoot  -2.95469 -0.398336 5.1538
RightToes  -1.33073e-015 0 -3.6325e-017
Spine  5.97735 -0.00062596 -2.31003
Spine1  6.79728 1.01859 -4.30095
HEad  3.37356 -18.8794 6.48976
LeftShoulder1  1.23273 -1.10458 -20.2961
LeftArm  -27.4454 16.9314 -38.5387
LeftForeArm  -1.25627 -65.7561 -26.6878
LeftHand  0.0522092 12.6658 1.86282
RightShoulder  3.76339 10.0807 21.3975
RightArm  -32.1704 3.9977 2.95516
RightForeArm  17.9788 10.5046 7.47789
RightHand  -0.446683 1.83821 -7.34424
LeftUpLeg  -8.85642 7.97375 7.42816
LeftLeg  10.5527 -1.63418 -0.298088
LeftFoot  -4.06714 0.460062 -6.84956
LeftToes  -2.73175e-012 1.00346e-010 -4.28452e-011
323
root  42.7185 40.0141 6.54901 -178.531 -47.8725 -177.821
RightUpLeg  -7.48142 -4.2072 -2.40459
RightLeg  7.46903 -4.07876 -0.280085
RightFoot  -3.12664 -0.409622 5.40248
RightToes  -1.33073e-015 0 -3.6325e-017
Spine  5.3747 0.171075 -4.39505
Spine1  7.46945 -0.564395 2.31859
HEad  2.92449 -8.21011 0.0942166
LeftShoulder1  1.18986 -1.48124 -17.1961
LeftArm  -21.4858 20.9088 -40.1926
LeftForeArm  -6.40262 -65.5488 -26.9651
LeftHand  -0.106728 14.5831 -0.322412
RightShoulder  4.0499 10.2434 23.2644
RightArm  -35.5388 7.03958 0.6732
RightForeArm  19.2817 10.8816 6.94186
RightHand  -0.469984 1.9183 -7.63953
LeftUpLeg  -9.21519 7.07037 6.78058
LeftLeg  10.4436 -2.39545 -0.328443
LeftFoot  -3.90649 0.456898 -6.66761
LeftToes  -2.73175e-012 1.00346e-010 -4.28452e-011
324
root  42.5969 40.0275 6.66727 -178.29 -49.2246 -178.199
RightUpLeg  -7.08102 -4.89181 -3.12039
RightLeg  7.23338 -4.67752 -0.177027
RightFoot  -3.14289 -0.428363 5.67258
RightToes  -1.33073e-015 0 -3.6325e-017
Spine  4.78646 0.349242 -5.66193
Spine1  7.99554 -1.94344 8.1151
HEad  1.64789 3.10431 -6.25857
LeftShoulder1  1.07953 -1.53337 -14.5394
LeftArm  -13.9205 23.8562 -39.2397
LeftForeArm  -11.3986 -65.7925 -27.8431
LeftHand  -0.379814 16.9985 -2.74613
RightShoulder  4.32144 10.4649 24.8199
RightArm  -37.5101 9.81891 -1.72833
RightForeArm  20.9622 11.7511 6.52359
RightHand  -0.486469 2.10312 -7.71991
LeftUpLeg  -9.30054 6.30964 6.10395
LeftLeg  10.1543 -2.89742 -0.343908
LeftFoot  -3.7073 0.4517 -6.43354
LeftToes  -2.73175e-012 1.00346e-010 -4.28452e-011
325
root  42.4586 40.0379 6.8122 -177.975 -50.1465 -178.815
RightUpLeg  -6.65644 -5.57563 -3.96967
RightLeg  7.07484 -4.82487 -0.151615
RightFoot  -3.18681 -0.45052 6.03121
RightToes  -1.33073e-015 0 -3.6325e-017
Spine  4.2968 0.622103 -5.66255
Spine1  8.44295 -2.69109 11.9294
HEad  -0.034835 14.1832 -12.0717
LeftShoulder1  1.00287 -1.65454 -12.3511
LeftArm  -6.17204 25.6103 -35.9795
LeftForeArm  -15.7702 -66.6502 -29.6168
LeftHand  -0.822588 19.4046 -5.6722
RightShoulder  4.5894 10.5772 26.5501
RightArm  -38.1615 11.7953 -3.97534
RightForeArm  21.1481 13.3032 6.19218
RightHand  -0.508668 2.09994 -8.06629
LeftUpLeg  -9.16363 5.86713 5.32217
LeftLeg  9.88423 -3.28559 -0.463547
LeftFoot  -3.54019 0.433037 -6.03698
LeftToes  -2.73175e-012 1.00346e-010 -4.28452e-011
326
root  42.3204 40.0375 6.97752 -177.535 -50.658 -179.602
RightUpLeg  -6.43341 -6.18926 -4.86038
RightLeg  7.18021 -4.65665 -0.251041
RightFoot  -3.30885 -0.47512 6.44142
RightToes  -1.33073e-015 0 -3.6325e-017
Spine  3.74125 0.949026 -4.77569
Spine1  8.93586 -2.98776 14.2557
HEad  -2.26384 24.0061 -17.0272
LeftShoulder1  0.931681 -1.7499 -10.4595
LeftArm  1.69497 26.4537 -31.1746
LeftForeArm  -18.7701 -68.1358 -32.5603
LeftHand  -1.45952 21.6737 -9.10521
RightShoulder  4.7939 10.7088 27.728
RightArm  -38.6089 13.2136 -5.48037
RightForeArm  21.2114 14.4702 5.8901
RightHand  -0.530607 2.10553 -8.39963
LeftUpLeg  -8.97206 5.46177 4.44901
LeftLeg  9.69985 -3.31906 -0.540073
LeftFoot  -3.48316 0.415272 -5.73982
LeftToes  -2.73175e-012 1.00346e-010 -4.28452e-011
